<svg width="36" height="36" viewBox="0 0 36 36" fill="none" xmlns="http://www.w3.org/2000/svg">
<path fill-rule="evenodd" clip-rule="evenodd" d="M18 36C27.9411 36 36 27.9411 36 18C36 8.05887 27.9411 0 18 0C8.05887 0 0 8.05887 0 18C0 27.9411 8.05887 36 18 36ZM13 9C10.7909 9 9 10.7909 9 13V23C9 25.2091 10.7909 27 13 27H23C25.2091 27 27 25.2091 27 23V13C27 10.7909 25.2091 9 23 9H13Z" fill="#2355AD"/>
<rect x="9" y="9" width="18" height="18" rx="4" fill="url(#paint0_linear_1532_1895)"/>
<defs>
<linearGradient id="paint0_linear_1532_1895" x1="18" y1="9" x2="18" y2="27" gradientUnits="userSpaceOnUse">
<stop stop-color="#2355AD"/>
<stop offset="1" stop-color="white" stop-opacity="0"/>
</linearGradient>
</defs>
</svg>
