<svg width="36" height="36" viewBox="0 0 36 36" fill="none" xmlns="http://www.w3.org/2000/svg">
<path d="M7.62049 13.9294H9.06719C9.87051 13.9402 10.4595 14.4823 10.5172 15.2955V20.7609C10.5079 21.4468 9.91041 22.0843 9.06802 22.1271H7.62049V13.9294Z" fill="#9BCAA0"/>
<path fill-rule="evenodd" clip-rule="evenodd" d="M18 36C27.9411 36 36 27.9411 36 18C36 8.05887 27.9411 0 18 0C8.05887 0 0 8.05887 0 18C0 27.9411 8.05887 36 18 36ZM8.84902 24.4835C11.8976 24.4882 12.8606 22.2518 12.8606 20.7758L12.8598 15.21C12.859 13.7332 11.8702 11.5 8.93032 11.5H5V24.4835H8.84902ZM16.7926 13.8188H21.2124L21.2132 11.5024H15.9714C15.0465 11.5243 14.314 12.2509 14.3364 13.1259V22.9431C14.3596 23.8188 15.1294 24.5109 16.0552 24.4882H21.2132V22.1679H16.7926V19.1539H19.4944V16.8335H16.7926V13.8188ZM25.8743 22.8654C26.7528 24.7981 28.7146 25.2784 29.8096 22.8654L33 11.5031H30.2974L27.8445 20.4266L25.3799 11.5031H22.6781L25.8743 22.8654Z" fill="#9BCAA0"/>
</svg>
