<svg width="36" height="36" viewBox="0 0 36 36" fill="none" xmlns="http://www.w3.org/2000/svg">
<path fill-rule="evenodd" clip-rule="evenodd" d="M18 36C27.9411 36 36 27.9411 36 18C36 8.05888 27.9411 0 18 0C8.05888 0 0 8.05888 0 18C0 27.9411 8.05888 36 18 36ZM3.95 13.672H3.75V23.695H3.99399C4.54408 23.695 5.21191 23.7044 5.78146 23.7124C6.2049 23.7183 6.57399 23.7235 6.79999 23.7235C10.623 23.7235 12.5415 21.4045 12.5415 18.5975C12.5415 15.934 10.9235 13.629 6.91498 13.629C6.56694 13.629 5.90872 13.6409 5.28658 13.6523C4.72906 13.6624 4.20049 13.672 3.95 13.672ZM6.04102 21.5475V15.82C6.32748 15.777 6.64252 15.7765 6.886 15.7765C8.7475 15.7765 10.1075 16.75 10.1075 18.5975C10.1075 20.5025 8.84752 21.5765 6.87099 21.5765C6.54199 21.5765 6.342 21.5765 6.04102 21.5475ZM23.7145 18.6835C23.7145 15.49 21.4385 13.5 18.3885 13.5C15.195 13.5 13.062 15.7765 13.0615 18.6835C13.0615 21.8775 15.338 23.8675 18.388 23.8675C21.4375 23.8675 23.7145 21.7195 23.7145 18.6835ZM21.2805 18.683C21.2805 20.3729 20.2937 21.7188 18.389 21.719C16.7855 21.719 15.4965 20.402 15.4965 18.683C15.4965 16.85 16.728 15.647 18.389 15.647C20.0065 15.647 21.2805 16.85 21.2805 18.683ZM28.655 23.867C30.8025 23.867 32.75 22.621 32.75 19.557V13.672H30.4585V19.099C30.4585 20.703 30.0435 21.72 28.6545 21.72C27.051 21.72 26.5795 20.531 26.5795 18.97V13.672H24.2885V19.457C24.2885 22.392 26.078 23.867 28.655 23.867Z" fill="#58A761"/>
</svg>
