<svg width="36" height="36" viewBox="0 0 36 36" fill="none" xmlns="http://www.w3.org/2000/svg">
<path d="M28.243 17.9089C28.2169 15.5011 27.3579 13.2755 25.9262 11.5314C25.705 11.8178 23.987 14.0304 20.2126 15.5662C20.4468 16.0477 20.6811 16.5553 20.8894 17.0499C20.9219 17.1258 20.9521 17.2016 20.982 17.2765C21.0239 17.3816 21.0651 17.4848 21.1106 17.5835C24.4283 17.1657 27.7213 17.8073 28.2088 17.9023C28.2224 17.9049 28.2338 17.9071 28.243 17.9089Z" fill="#76B77E"/>
<path d="M24.7939 10.3471C22.9848 8.7462 20.603 7.77006 18 7.77006C17.167 7.77006 16.3601 7.86117 15.5922 8.04338L15.606 8.06214C15.9336 8.50877 17.7646 11.0045 19.4187 14.0434C23.0629 12.6768 24.6117 10.6074 24.7939 10.3471Z" fill="#76B77E"/>
<path d="M17.4403 14.6551C15.7354 11.6356 13.9132 9.09761 13.6399 8.73319C10.7766 10.0868 8.62906 12.7289 7.96529 15.9046C7.97312 15.9046 7.98207 15.9046 7.99211 15.9046C8.56643 15.9051 12.7331 15.9087 17.4403 14.6551Z" fill="#76B77E"/>
<path d="M7.74403 17.7006V18.013C7.74403 20.6421 8.7462 23.0499 10.3731 24.859C10.6074 24.4686 13.4187 19.8091 18.7028 18.1041C18.7677 18.0847 18.8358 18.0652 18.9039 18.0458C18.9724 18.0262 19.041 18.0066 19.1063 17.987C18.846 17.4013 18.5727 16.8156 18.2733 16.243C13.1584 17.7787 8.18655 17.7137 7.74403 17.7006Z" fill="#76B77E"/>
<path d="M11.7137 26.0954C13.4447 27.449 15.6312 28.256 18 28.256C19.4187 28.256 20.7722 27.9696 22.0087 27.436C21.8525 26.538 21.2668 23.4013 19.8221 19.6659C19.8091 19.6725 19.7993 19.6757 19.7895 19.679C19.7798 19.6822 19.77 19.6855 19.757 19.692C13.9783 21.7093 11.8959 25.718 11.7137 26.0954Z" fill="#76B77E"/>
<path d="M21.7224 19.1974C23.0629 22.8807 23.6095 25.8742 23.7137 26.4989C26.0173 24.9501 27.6573 22.4902 28.0998 19.6399C27.7484 19.5228 24.9371 18.6898 21.7224 19.1974Z" fill="#76B77E"/>
<path fill-rule="evenodd" clip-rule="evenodd" d="M18 36C27.9411 36 36 27.9411 36 18C36 8.05887 27.9411 0 18 0C8.05887 0 0 8.05887 0 18C0 27.9411 8.05887 36 18 36ZM6 18C6 11.3753 11.3753 6 18 6C24.6117 6 30 11.3753 30 18C30 24.6247 24.6117 30 18 30C11.3753 30 6 24.6247 6 18Z" fill="#76B77E"/>
</svg>
