<svg width="36" height="36" viewBox="0 0 36 36" fill="none" xmlns="http://www.w3.org/2000/svg">
<path fill-rule="evenodd" clip-rule="evenodd" d="M18 36C27.9411 36 36 27.9412 36 18C36 8.05884 27.9411 0 18 0C8.05887 0 0 8.05884 0 18C0 27.9412 8.05887 36 18 36ZM23.7037 11.3101L31.841 15.9978C32.9493 16.6365 33.329 18.0503 32.6891 19.156C32.2599 19.8979 31.4811 20.3125 30.6802 20.3125C30.2872 20.3125 29.8888 20.2124 29.5239 20.0022L21.3866 15.3147C20.2783 14.676 19.8986 13.2622 20.5385 12.1565C20.9677 11.4146 21.7464 11 22.5472 11C22.9403 11 23.3388 11.1001 23.7037 11.3101ZM7.4761 15.9978L15.6135 20.6853C16.7218 21.3237 17.1015 22.7378 16.4616 23.8435C16.0324 24.5852 15.2536 25 14.4527 25C14.0597 25 13.6612 24.9001 13.2964 24.6899L5.15897 20.0022C4.05066 19.364 3.67096 17.95 4.31082 16.844C4.74005 16.1023 5.51883 15.6875 6.3197 15.6875C6.71274 15.6875 7.11118 15.7876 7.4761 15.9978ZM29.2017 20.5591L25.4038 18.3713L21.3866 20.6853C20.2783 21.3237 19.8986 22.7378 20.5385 23.8435C20.9676 24.5852 21.7465 25 22.5474 25C22.9404 25 23.3387 24.9001 23.7037 24.6899L30.2449 20.9219C29.8794 20.8672 29.5247 20.7451 29.2017 20.5591ZM11.5963 17.6289L7.79831 15.4409C7.47552 15.2549 7.12088 15.1331 6.75531 15.0784L13.2964 11.3101C14.4047 10.6716 15.8217 11.0508 16.4616 12.1565C17.1015 13.2622 16.7218 14.6763 15.6135 15.3147L11.5963 17.6289Z" fill="#4D9356"/>
</svg>
