<svg width="36" height="36" viewBox="0 0 36 36" fill="none" xmlns="http://www.w3.org/2000/svg">
<path fill-rule="evenodd" clip-rule="evenodd" d="M35.85 18C35.85 27.8583 27.8583 35.85 18 35.85C8.14174 35.85 0.150024 27.8583 0.150024 18C0.150024 8.14174 8.14174 0.150024 18 0.150024C27.8583 0.150024 35.85 8.14174 35.85 18ZM13.632 7.47597C14.76 7.42197 15.126 7.40997 18 7.40997C20.874 7.40997 21.234 7.42197 22.362 7.47597C23.49 7.52997 24.258 7.70397 24.936 7.96797C25.638 8.24397 26.226 8.60397 26.814 9.19197C27.402 9.77997 27.768 10.374 28.038 11.07C28.296 11.742 28.476 12.51 28.53 13.638C28.584 14.772 28.596 15.132 28.596 18.006C28.596 20.8248 28.5787 21.2295 28.533 22.3031L28.53 22.374C28.476 23.502 28.296 24.27 28.038 24.942C27.762 25.638 27.402 26.232 26.814 26.82C26.226 27.408 25.638 27.774 24.942 28.044C24.264 28.308 23.496 28.482 22.368 28.536C21.234 28.59 20.874 28.602 18 28.602C15.12 28.602 14.76 28.59 13.632 28.536C12.51 28.482 11.736 28.308 11.064 28.044C10.368 27.774 9.77399 27.408 9.18599 26.82C8.59199 26.232 8.23199 25.638 7.96199 24.942C7.69799 24.27 7.52399 23.502 7.46999 22.374C7.41599 21.24 7.40399 20.88 7.40399 18.006C7.40399 15.1871 7.42124 14.7824 7.46697 13.7088L7.46999 13.638C7.51799 12.516 7.69799 11.742 7.96199 11.07C8.23799 10.374 8.59799 9.77997 9.18599 9.19197C9.77399 8.59797 10.368 8.23797 11.064 7.96797C11.736 7.70397 12.504 7.52997 13.632 7.47597ZM18 9.31797H17.052C15.078 9.31797 14.7 9.32997 13.722 9.37797C12.69 9.42597 12.126 9.59997 11.754 9.74397C11.262 9.93597 10.908 10.164 10.536 10.536C10.164 10.908 9.93599 11.262 9.74399 11.754C9.59999 12.132 9.42599 12.69 9.37799 13.722C9.32999 14.838 9.31799 15.174 9.31799 18C9.31799 20.826 9.32999 21.162 9.37799 22.278C9.42599 23.31 9.59999 23.874 9.74399 24.246C9.93599 24.738 10.164 25.092 10.536 25.464C10.908 25.836 11.262 26.064 11.754 26.256C12.132 26.4 12.69 26.574 13.722 26.622C14.838 26.67 15.174 26.682 18 26.682C20.826 26.682 21.162 26.67 22.278 26.622C23.31 26.574 23.874 26.4 24.246 26.256C24.744 26.064 25.092 25.836 25.464 25.464C25.836 25.092 26.064 24.738 26.256 24.246C26.4 23.868 26.574 23.31 26.622 22.278C26.67 21.162 26.682 20.826 26.682 18C26.682 15.174 26.67 14.838 26.622 13.722C26.574 12.69 26.4 12.126 26.256 11.754C26.064 11.262 25.836 10.908 25.464 10.536C25.092 10.164 24.738 9.93597 24.246 9.74397C23.868 9.59997 23.31 9.42597 22.278 9.37797C21.162 9.32997 20.826 9.31797 18 9.31797ZM22.38 12.348C22.38 11.646 22.95 11.076 23.652 11.076C24.354 11.076 24.924 11.646 24.924 12.348C24.924 13.05 24.354 13.62 23.652 13.62C22.95 13.62 22.38 13.05 22.38 12.348ZM12.564 18C12.564 15 14.994 12.564 18 12.564C21.006 12.564 23.436 14.994 23.436 18C23.436 21 21.006 23.436 18 23.436C15 23.436 12.564 21.006 12.564 18ZM21.528 18C21.528 16.05 19.95 14.472 18 14.472C16.05 14.472 14.472 16.05 14.472 18C14.472 19.95 16.05 21.528 18 21.528C19.95 21.528 21.528 19.95 21.528 18Z" fill="#2355AD"/>
</svg>
