<svg width="36" height="36" viewBox="0 0 36 36" fill="none" xmlns="http://www.w3.org/2000/svg">
<path d="M26.0721 14.2811V21.344H23.2738V14.4886C23.2738 13.0433 22.666 12.3101 21.4498 12.3101C20.1051 12.3101 19.4314 13.1799 19.4314 14.9006V18.6532H16.6495V14.9006C16.6495 13.1799 15.9755 12.3101 14.6311 12.3101C13.4149 12.3101 12.8068 13.0433 12.8068 14.4886V21.344H10.0087V14.2811C10.0087 12.8375 10.3763 11.6902 11.1146 10.8416C11.8757 9.99304 12.8727 9.5578 14.1104 9.5578C15.5422 9.5578 16.6266 10.1084 17.3434 11.2093L18.0403 12.3777L18.7375 11.2093C19.4543 10.1084 20.5386 9.5578 21.9705 9.5578C23.2078 9.5578 24.2051 9.99304 24.9662 10.8416C25.7045 11.6902 26.0721 12.8375 26.0721 14.2811Z" fill="#9BCAA1"/>
<path fill-rule="evenodd" clip-rule="evenodd" d="M18 36C27.9411 36 36 27.9411 36 18C36 8.0589 27.9411 0 18 0C8.0589 0 0 8.0589 0 18C0 27.9411 8.0589 36 18 36ZM30.0467 21.1203C29.678 23.0173 26.7448 25.0932 23.3756 25.4955C21.6189 25.705 19.8891 25.8977 18.0449 25.813C15.0286 25.675 12.6483 25.0932 12.6483 25.0932C12.6483 25.3868 12.6664 25.6663 12.7028 25.9277C13.0949 28.905 15.6545 29.0833 18.0789 29.1663C20.5261 29.2501 22.7053 28.5629 22.7053 28.5629L22.8058 30.7757C22.8058 30.7757 21.0942 31.6946 18.0449 31.8638C16.3632 31.9563 14.2755 31.8214 11.8438 31.178C6.56989 29.7818 5.66272 24.1595 5.52417 18.4551C5.49304 17.2116 5.49896 16.0203 5.50427 14.946V14.9434L5.50446 14.8973C5.50629 14.5258 5.50806 14.1686 5.50806 13.8284C5.50806 7.99512 9.32959 6.28552 9.32959 6.28552C11.2565 5.40027 14.5631 5.02826 18.0005 5H18.0853C21.5224 5.02826 24.8313 5.40027 26.7582 6.28552C26.7582 6.28552 30.5798 7.99512 30.5798 13.8284C30.5798 13.8284 30.6276 18.1322 30.0467 21.1203Z" fill="#9BCAA1"/>
</svg>
