<svg width="36" height="36" viewBox="0 0 36 36" fill="none" xmlns="http://www.w3.org/2000/svg">
<path fill-rule="evenodd" clip-rule="evenodd" d="M35.6343 14.3785C35.8741 15.5507 36 16.7645 36 18.0077L35.5208 17.8441C31.233 16.345 27.6427 14.1488 24.75 11.2548C21.8572 8.36081 19.662 4.76903 18.1635 0.479454L18 0C18.0954 0 18.1907 0.000742981 18.2858 0.00222348C26.8572 0.135687 33.9743 6.26264 35.6343 14.3785ZM28.8105 7.19257C27.639 6.02057 26.2147 5.54561 25.629 6.13161C25.0433 6.71686 25.518 8.14247 26.6895 9.31447C27.861 10.4865 29.2853 10.9614 29.871 10.3754C30.4567 9.79017 29.982 8.36457 28.8105 7.19257Z" fill="#6CB274"/>
<path d="M21.7448 35.6251C21.6338 31.3549 19.69 28.3889 16.185 26.8179L36 18.0077C36 26.6684 29.8886 33.9011 21.7448 35.6251Z" fill="#6CB274"/>
<path d="M17.25 36C17.2442 31.9529 14.9291 30.0742 9.2805 30.0143L9 30.0128C8.00025 30.0128 7.25025 29.7629 6.75 29.2625C6.24975 28.762 6 28.0117 6 27.0115L18 0C8.05887 0 0 8.06231 0 18.0077C0 27.7017 7.65668 35.6066 17.25 36Z" fill="#6CB274"/>
</svg>
