<svg width="36" height="36" viewBox="0 0 36 36" fill="none" xmlns="http://www.w3.org/2000/svg">
<path fill-rule="evenodd" clip-rule="evenodd" d="M18 36C27.9411 36 36 27.9411 36 18C36 8.05887 27.9411 0 18 0C8.05887 0 0 8.05887 0 18C0 27.9411 8.05887 36 18 36ZM23.1395 17.0231C23.2451 17.0669 23.3493 17.1126 23.452 17.1601C24.9027 17.8318 25.9637 18.849 26.5202 20.1013C27.2958 21.8476 27.3667 24.6923 25.0133 26.9617C23.2145 28.6964 21.0311 29.4793 17.9334 29.5H17.9194C14.4351 29.4768 11.7558 28.345 9.95581 26.1364C8.35407 24.1709 7.52785 21.4361 7.50009 18.0081L7.5 18L7.50009 17.9919C7.52785 14.5639 8.35407 11.8291 9.95581 9.86367C11.7558 7.65501 14.4351 6.5233 17.9194 6.5H17.9334C21.4247 6.52338 24.1344 7.6508 25.9872 9.85105C26.9013 10.9366 27.5731 12.2455 28 13.7644L25.9961 14.2805C25.6439 13.0465 25.1096 11.9881 24.401 11.1465C22.9558 9.43027 20.7776 8.54979 17.9264 8.52933C15.0956 8.54963 12.9548 9.4259 11.5629 11.1339C10.2595 12.7332 9.5859 15.0433 9.56077 18C9.5859 20.9567 10.2595 23.2668 11.5629 24.8661C12.9548 26.5741 15.0957 27.4504 17.9264 27.4706C20.4783 27.4525 22.1669 26.8665 23.5716 25.5119C25.1749 23.9656 25.145 22.069 24.6322 20.9148C24.3306 20.2358 23.7846 19.671 23.0478 19.2418C22.8683 20.5328 22.4619 21.5573 21.8192 22.348C20.9731 23.3891 19.7602 23.9584 18.2142 24.0403C17.0435 24.1019 15.917 23.8294 15.0424 23.2722C14.008 22.6129 13.4026 21.6038 13.3378 20.4308C13.2102 18.1183 15.1106 16.4541 18.0668 16.2898C19.1163 16.2317 20.0979 16.2775 21.0056 16.4264C20.8851 15.715 20.6417 15.1513 20.2779 14.7433C19.7779 14.183 19.0053 13.8957 17.9815 13.8894L17.9531 13.8893C17.1311 13.8893 16.015 14.1114 15.3038 15.1529L13.5938 14.0206C14.5458 12.6263 16.0925 11.86 17.9523 11.86L17.9945 11.8601C21.1038 11.8792 22.9555 13.752 23.1395 17.0231ZM15.3954 20.3206C15.4618 21.523 16.8079 22.0843 18.1035 22.0139C19.372 21.9467 20.8119 21.4662 21.0574 18.5071C20.3992 18.3682 19.6754 18.2956 18.9016 18.2956C18.6664 18.2956 18.427 18.3023 18.183 18.3159C16.0527 18.4344 15.3463 19.4291 15.3954 20.3206Z" fill="#2355AD"/>
</svg>
