<svg width="36" height="36" viewBox="0 0 36 36" fill="none" xmlns="http://www.w3.org/2000/svg">
<path d="M15.3409 21.6658L22.1364 18.2035L15.3409 14.7409V21.6658Z" fill="#2355AD"/>
<path fill-rule="evenodd" clip-rule="evenodd" d="M18 36C27.9411 36 36 27.9411 36 18C36 8.0589 27.9411 0 18 0C8.0589 0 0 8.0589 0 18C0 27.9411 8.0589 36 18 36ZM30.4567 12.562C30.1577 11.5535 29.2767 10.7593 28.158 10.4898C26.1304 10 17.9999 10 17.9999 10C17.9999 10 9.86957 10 7.84204 10.4898C6.72333 10.7593 5.84229 11.5535 5.54333 12.562C5 14.3898 5 18.2034 5 18.2034C5 18.2034 5 22.017 5.54333 23.8448C5.84229 24.8533 6.72333 25.6473 7.84204 25.9169C9.86957 26.4067 17.9999 26.4067 17.9999 26.4067C17.9999 26.4067 26.1304 26.4067 28.158 25.9169C29.2767 25.6473 30.1577 24.8531 30.4567 23.845C31 22.0168 31 18.2034 31 18.2034C31 18.2034 31 14.3898 30.4567 12.562Z" fill="#2355AD"/>
</svg>
